<?xml version="1.0" encoding="utf-8"?>
<!-- Svg Vector Icons : http://www.onlinewebfonts.com/icon -->
<!DOCTYPE svg PUBLIC "-//W3C//DTD SVG 1.1//EN" "http://www.w3.org/Graphics/SVG/1.1/DTD/svg11.dtd">
<svg version="1.1" xmlns="http://www.w3.org/2000/svg" xmlns:xlink="http://www.w3.org/1999/xlink" x="0px" y="0px" viewBox="0 0 1000 1000" enable-background="new 0 0 1000 1000" xml:space="preserve">
<metadata> Svg Vector Icons : http://www.onlinewebfonts.com/icon </metadata>
<g><g transform="matrix(1 0 0 -1 0 1952)"><path d="M168.1,1207c0-135.3,110.8-245,246.1-245h175c135.3,0,242.8,109.7,242.8,245v350H168.1L168.1,1207L168.1,1207z M482,1627v32.8c0,0-70,2.2-70,70v74.4c0,0,8.8,70,70,70v67.8h-67.8c-135.3,0-246.1-109.7-246.1-245v-105H447C482,1592,482,1627,482,1627L482,1627z M589.1,1942l-70,0v-70c0,0,70-4.4,70-70l0-70c0,0-4.4-72.2-70-72.2l0.3-35.2c0,0-0.3-31.5,34.7-31.5h277.8V1697C832,1832.3,724.5,1942,589.1,1942L589.1,1942z M449.1,1802v-70c0-19.3,15.7-35,35-35h35c19.3,0,35,15.7,35,35v70c0,19.3-15.7,35-35,35h-35C464.8,1837,449.1,1821.3,449.1,1802z"/></g></g>
</svg>